:FULLY-SPECIFIED
:FORCE-ALL-JOINTS-BE-3DOF
:DEGREES
1427
root -2.08881 13.7328 12.6636 6.74922 27.0788 6.5883
lfemur 25.7019 -0.0820525 -10.4512
ltibia 16.4456 -0 0
lfoot -15.5042 34.467 0.000262856
ltoes -24.3865 0 0
rfemur -65.6713 -21.4014 12.2627
rtibia 73.8991 -0 0
rfoot -9.03497 10.4383 -0.00110159
rtoes 4.69146 -0 0
lowerback 10.307 2.0453 -10.2768
upperback -3.29051 1.21951 -0.971517
thorax -9.61255 1.17009 4.50603
lowerneck 0.0415793 -11.6871 -10.525
upperneck 5.89396 -16.0771 9.78891
head 3.3916 -7.99214 3.92448
lclavicle 9.37161e-15 9.6659e-15 0
lhumerus -73.7519 -18.1125 104.325
lradius 100.957 -0 0
lwrist 58.2823 0 0
lhand -9.2844 42.1656 -0.000293321
lfingers 7.12502 -0 0
lthumb 16.6726 71.4692 -0.000283337
rclavicle 9.37161e-15 9.6659e-15 0
rhumerus 63.0578 -13.9517 -27.8287
rradius 82.2175 -0 0
rwrist 26.8681 0 0
rhand -43.6866 -31.1984 0.00017826
rfingers 7.12502 -0 0
rthumb -16.5195 -60.5151 0.000156595
1428
root -2.09225 13.7302 12.6655 6.75809 27.0812 6.59782
lfemur 25.6852 -0.0830017 -10.4379
ltibia 16.4721 -0 0
lfoot -15.4901 34.4744 0.000240951
ltoes -24.2997 0 0
rfemur -65.7061 -21.4317 12.2838
rtibia 73.9386 -0 0
rfoot -9.05271 10.463 -0.00100979
rtoes 4.74998 -0 0
lowerback 10.2991 2.03857 -10.2899
upperback -3.29948 1.20937 -0.968952
thorax -9.61688 1.16661 4.51807
lowerneck 0.0328167 -11.6819 -10.5146
upperneck 5.90218 -16.0687 9.77123
head 3.39232 -7.9879 3.91775
lclavicle 9.37161e-15 9.6659e-15 0
lhumerus -73.7676 -18.1327 104.349
lradius 100.943 -0 0
lwrist 58.3073 0 0
lhand -9.28241 42.1069 -0.000268877
lfingers 7.12502 -0 0
lthumb 16.6746 71.4104 -0.000259725
rclavicle 9.37161e-15 9.6659e-15 0
rhumerus 63.0404 -13.9444 -27.8231
rradius 82.2293 -0 0
rwrist 26.8293 0 0
rhand -43.6779 -31.1903 0.000163405
rfingers 7.12502 -0 0
rthumb -16.511 -60.5077 0.000143545
1429
root -2.09568 13.7275 12.6674 6.76695 27.0836 6.60734
lfemur 25.6684 -0.083947 -10.4247
ltibia 16.4987 -0 0
lfoot -15.4759 34.4817 0.000217221
ltoes -24.2128 0 0
rfemur -65.741 -21.462 12.3049
rtibia 73.9781 -0 0
rfoot -9.07045 10.4877 -0.000910338
rtoes 4.8085 -0 0
lowerback 10.2911 2.03184 -10.303
upperback -3.30845 1.19923 -0.966386
thorax -9.62122 1.16313 4.53012
lowerneck 0.0240552 -11.6767 -10.5043
upperneck 5.91039 -16.0603 9.75355
head 3.39304 -7.98366 3.91102
lclavicle 9.37161e-15 9.6659e-15 0
lhumerus -73.7833 -18.153 104.374
lradius 100.93 -0 0
lwrist 58.3322 0 0
lhand -9.28042 42.0483 -0.000242397
lfingers 7.12502 -0 0
lthumb 16.6765 71.3516 -0.000234145
rclavicle 9.37161e-15 9.6659e-15 0
rhumerus 63.0231 -13.9371 -27.8175
rradius 82.2411 -0 0
rwrist 26.7905 0 0
rhand -43.6691 -31.1822 0.000147312
rfingers 7.12502 -0 0
rthumb -16.5026 -60.5004 0.000129408
1430
root -2.09912 13.7249 12.6694 6.77581 27.086 6.61686
lfemur 25.6517 -0.0848885 -10.4115
ltibia 16.5252 -0 0
lfoot -15.4617 34.4891 0.000191666
ltoes -24.1259 0 0
rfemur -65.7759 -21.4923 12.3261
rtibia 74.0176 -0 0
rfoot -9.0882 10.5124 -0.000803239
rtoes 4.86702 -0 0
lowerback 10.2831 2.0251 -10.3161
upperback -3.31743 1.18909 -0.963817
thorax -9.62555 1.15965 4.54217
lowerneck 0.0152949 -11.6715 -10.4939
upperneck 5.91861 -16.0519 9.73588
head 3.39375 -7.97942 3.9043
lclavicle 9.37161e-15 9.6659e-15 0
lhumerus -73.799 -18.1732 104.399
lradius 100.917 -0 0
lwrist 58.3571 0 0
lhand -9.27843 41.9896 -0.000213879
lfingers 7.12502 -0 0
lthumb 16.6784 71.2928 -0.000206598
rclavicle 9.37161e-15 9.6659e-15 0
rhumerus 63.0057 -13.9298 -27.8119
rradius 82.2528 -0 0
rwrist 26.7517 0 0
rhand -43.6603 -31.1742 0.000129982
rfingers 7.12502 -0 0
rthumb -16.4941 -60.493 0.000114184
1431
root -2.10255 13.7223 12.6713 6.78467 27.0884 6.62638
lfemur 25.6349 -0.0858261 -10.3983
ltibia 16.5517 -0 0
lfoot -15.4476 34.4965 0.000164285
ltoes -24.039 0 0
rfemur -65.8108 -21.5226 12.3472
rtibia 74.0571 -0 0
rfoot -9.10594 10.5371 -0.00068849
rtoes 4.92554 -0 0
lowerback 10.2751 2.01837 -10.3292
upperback -3.3264 1.17895 -0.961247
thorax -9.62988 1.15617 4.55422
lowerneck 0.00653569 -11.6663 -10.4835
upperneck 5.92682 -16.0435 9.71821
head 3.39447 -7.97518 3.89757
lclavicle 9.37161e-15 9.6659e-15 0
lhumerus -73.8147 -18.1934 104.423
lradius 100.903 -0 0
lwrist 58.3821 0 0
lhand -9.27644 41.931 -0.000183324
lfingers 7.12502 -0 0
lthumb 16.6803 71.234 -0.000177084
rclavicle 9.37161e-15 9.6659e-15 0
rhumerus 62.9883 -13.9225 -27.8063
rradius 82.2646 -0 0
rwrist 26.7129 0 0
rhand -43.6515 -31.1661 0.000111413
rfingers 7.12502 -0 0
rthumb -16.4857 -60.4856 9.78717e-05
1432
root -2.10598 13.7196 12.6732 6.79354 27.0909 6.6359
lfemur 25.6182 -0.0867599 -10.3851
ltibia 16.5783 -0 0
lfoot -15.4334 34.5039 0.000135079
ltoes -23.9521 0 0
rfemur -65.8458 -21.5529 12.3684
rtibia 74.0967 -0 0
rfoot -9.12369 10.5618 -0.000566092
rtoes 4.98406 -0 0
lowerback 10.2672 2.01163 -10.3423
upperback -3.33538 1.16881 -0.958676
thorax -9.63422 1.15269 4.56627
lowerneck -0.0022224 -11.6611 -10.4732
upperneck 5.93503 -16.0351 9.70053
head 3.39518 -7.97094 3.89085
lclavicle 9.37161e-15 9.6659e-15 0
lhumerus -73.8305 -18.2136 104.448
lradius 100.89 -0 0
lwrist 58.407 0 0
lhand -9.27445 41.8724 -0.000150733
lfingers 7.12502 -0 0
lthumb 16.6822 71.1752 -0.000145602
rclavicle 9.37161e-15 9.6659e-15 0
rhumerus 62.9709 -13.9152 -27.8007
rradius 82.2764 -0 0
rwrist 26.6741 0 0
rhand -43.6427 -31.158 9.1606e-05
rfingers 7.12502 -0 0
rthumb -16.4772 -60.4783 8.04723e-05
1433
root -2.10942 13.717 12.6751 6.8024 27.0933 6.64543
lfemur 25.6014 -0.0876898 -10.3719
ltibia 16.6048 -0 0
lfoot -15.4192 34.5113 0.000104047
ltoes -23.8652 0 0
rfemur -65.8807 -21.5831 12.3896
rtibia 74.1362 -0 0
rfoot -9.14143 10.5865 -0.000436043
rtoes 5.04257 -0 0
lowerback 10.2592 2.00489 -10.3554
upperback -3.34435 1.15867 -0.956103
thorax -9.63856 1.14921 4.57831
lowerneck -0.0109794 -11.6559 -10.4628
upperneck 5.94323 -16.0266 9.68287
head 3.3959 -7.9667 3.88412
lclavicle 9.37161e-15 9.6659e-15 0
lhumerus -73.8462 -18.2338 104.473
lradius 100.877 -0 0
lwrist 58.4319 0 0
lhand -9.27246 41.8137 -0.000116105
lfingers 7.12502 -0 0
lthumb 16.6841 71.1164 -0.000112152
rclavicle 9.37161e-15 9.6659e-15 0
rhumerus 62.9535 -13.9079 -27.7952
rradius 82.2882 -0 0
rwrist 26.6354 0 0
rhand -43.6339 -31.1499 7.05614e-05
rfingers 7.12502 -0 0
rthumb -16.4688 -60.4709 6.19854e-05
1434
root -2.11285 13.7144 12.677 6.81127 27.0957 6.65495
lfemur 25.5847 -0.0886158 -10.3586
ltibia 16.6313 -0 0
lfoot -15.405 34.5186 7.11901e-05
ltoes -23.7784 0 0
rfemur -65.9157 -21.6134 12.4109
rtibia 74.1757 -0 0
rfoot -9.15917 10.6112 -0.000298345
rtoes 5.10109 -0 0
lowerback 10.2512 1.99815 -10.3684
upperback -3.35333 1.14853 -0.953528
thorax -9.64289 1.14574 4.59036
lowerneck -0.0197352 -11.6507 -10.4524
upperneck 5.95144 -16.0182 9.6652
head 3.39661 -7.96246 3.8774
lclavicle 9.37161e-15 9.6659e-15 0
lhumerus -73.862 -18.254 104.498
lradius 100.864 -0 0
lwrist 58.4568 0 0
lhand -9.27047 41.7551 -7.94398e-05
lfingers 7.12502 -0 0
lthumb 16.6861 71.0576 -7.67356e-05
rclavicle 9.37161e-15 9.6659e-15 0
rhumerus 62.9362 -13.9006 -27.7896
rradius 82.2999 -0 0
rwrist 26.5966 0 0
rhand -43.6252 -31.1419 4.82788e-05
rfingers 7.12502 -0 0
rthumb -16.4603 -60.4635 4.2411e-05
1435
root -2.11629 13.7117 12.6789 6.82013 27.0981 6.66447
lfemur 25.5679 -0.089538 -10.3454
ltibia 16.6579 -0 0
lfoot -15.3909 34.526 3.65077e-05
ltoes -23.6915 0 0
rfemur -65.9507 -21.6436 12.4321
rtibia 74.2152 -0 0
rfoot -9.17692 10.6359 -0.000152997
rtoes 5.15961 -0 0
lowerback 10.2433 1.9914 -10.3815
upperback -3.3623 1.13839 -0.950952
thorax -9.64723 1.14226 4.60241
lowerneck -0.0284899 -11.6455 -10.4421
upperneck 5.95963 -16.0098 9.64753
head 3.39733 -7.95822 3.87067
lclavicle 9.37161e-15 9.6659e-15 0
lhumerus -73.8777 -18.2742 104.522
lradius 100.85 -0 0
lwrist 58.4818 0 0
lhand -9.26848 41.6964 -4.07382e-05
lfingers 7.12502 -0 0
lthumb 16.688 70.9988 -3.93515e-05
rclavicle 9.37161e-15 9.6659e-15 0
rhumerus 62.9188 -13.8933 -27.784
rradius 82.3117 -0 0
rwrist 26.5578 0 0
rhand -43.6164 -31.1338 2.47584e-05
rfingers 7.12502 -0 0
rthumb -16.4519 -60.4562 2.17492e-05
